<svg width="331" height="59" viewBox="0 0 662 108" fill="none" xmlns="http://www.w3.org/2000/svg" class="mx-auto my-4">
  <g filter="url(#filter0_d_1503_7630)">
    <path d="M31.3137 0.64399L5.088 21.9782C4.40597 22.5396 4 23.3818 4 24.2734V97.0608C4 98.679 5.2991 100 6.89051 100H73.2261C73.8756 100 74.5252 99.7688 75.0286 99.356L101.27 78.0383C101.953 77.4769 102.358 76.6348 102.358 75.7431V2.93923C102.358 1.321 101.059 0 99.468 0H33.1162C32.4666 0 31.8171 0.231176 31.3137 0.64399Z" fill="#FF4E00"/>
    <path d="M39.1247 21.4333H32.0933V28.5833H39.1247V21.4333Z" fill="white"/>
    <path d="M46.1559 10.7167H39.1245V17.8666H46.1559V10.7167Z" fill="white"/>
    <path d="M53.1877 21.4333H46.1562V28.5833H53.1877V21.4333Z" fill="white"/>
    <path d="M60.2028 10.7167H53.1714V17.8666H60.2028V10.7167Z" fill="white"/>
    <path d="M79.5269 64.2998L87.2241 58.0416C87.9061 57.4801 88.3121 56.638 88.3121 55.7463V45.8223C88.3121 44.2041 87.013 42.8831 85.4216 42.8831H79.5269V64.2998Z" fill="white"/>
    <path d="M74.2658 10.7167H67.2344V17.8666H74.2658V10.7167Z" fill="white"/>
    <path d="M66.2597 85.0728L73.1612 79.4585C73.8432 78.8971 74.2492 78.055 74.2492 77.1633V47.3582L31.5249 83.8179L33.0676 85.0728C33.5872 85.4856 34.2205 85.7168 34.8701 85.7168H64.4572C65.1068 85.7168 65.7563 85.5021 66.2597 85.0728Z" fill="white"/>
    <path d="M74.2492 35.7168H58.8549L25.0781 64.5477V77.6752L74.2492 35.7168Z" fill="white"/>
    <path d="M25.0781 38.656V51.4037L43.4605 35.7168H27.9686C26.3772 35.7168 25.0781 37.0378 25.0781 38.656Z" fill="white"/>
    <path d="M67.234 21.4333H60.2026V28.5833H67.234V21.4333Z" fill="white"/>
    <path d="M196.332 87.4174L203.429 71.9617H229.671L236.767 87.4174H254.808H272.298V40.5878L287.302 58.3719C289.884 61.3606 294.48 61.3606 297.062 58.3719L303.785 50.5119L312.066 40.5878V87.4009H329.588V12.5H313.934C313.203 12.5 312.554 12.7807 312.099 13.3421L292.206 36.8395L272.314 13.3421C271.859 12.7807 271.21 12.5 270.56 12.5H254.808V86.9221L222.396 16.43C221.389 14.1843 219.18 12.5826 216.501 12.5826C213.838 12.5826 211.532 14.2668 210.606 16.6116L210.509 16.7107L178.096 87.4174H196.332ZM216.598 43.3124L221.941 55.2015H211.175L216.598 43.3124Z" fill="white"/>
    <path d="M369.925 12.5H332.446V87.4174H376.372V69.6169H349.935V58.8507H368.594V41.0667H349.935V30.3005H376.372V19.0555C376.372 15.4062 373.433 12.5 369.925 12.5Z" fill="white"/>
    <path d="M133.797 81.8197C139.448 85.4029 146.106 87.467 153.251 87.467C158.123 87.467 162.767 86.5092 167.021 84.7589C167.281 84.6598 167.541 84.5443 167.785 84.4287C177.95 79.9868 184.413 69.683 184.413 58.4379V56.572C184.413 52.9392 181.506 49.9835 177.934 49.9835H172.705L153.251 50.0991L167.021 63.9531C163.498 67.5363 158.626 69.7655 153.251 69.7655C142.501 69.7655 133.797 60.8983 133.797 49.9835C133.797 39.0687 142.517 30.2015 153.267 30.2015C156.905 30.2015 160.299 31.2087 163.222 32.9756C165.739 34.5112 168.97 34.0489 171.049 31.9353L179.347 23.4974C175.872 19.9472 171.682 17.1235 167.038 15.2081C162.783 13.4577 158.139 12.5 153.267 12.5C146.122 12.5 139.448 14.5641 133.813 18.1473C123.404 24.7358 116.454 36.4762 116.421 49.8514C116.421 49.9009 116.421 49.934 116.421 49.9835C116.421 50.033 116.421 50.0661 116.421 50.1156C116.454 63.5073 123.388 75.2312 133.797 81.8197Z" fill="white"/>
    <path d="M650.678 12.599L630.705 30.383H657.125V19.1545C657.125 15.5052 654.186 12.599 650.678 12.599Z" fill="#FF4E00"/>
    <path d="M627.587 69.7159V58.9497H644.946V41.1492H627.587V30.383L647.577 12.599H610.098V87.5164H657.125V69.7159H627.587Z" fill="white"/>
    <path d="M418.089 64.1017C427.199 59.7919 433.468 50.5284 433.468 39.6631C433.565 24.6863 421.029 12.5 406.3 12.5H393.358H379.133H372.913C376.339 12.5 379.133 15.3236 379.133 18.8243V30.3005H393.358H406.381C411.35 30.3005 415.686 34.2305 415.865 39.3824C416.141 44.8151 411.902 49.2074 406.56 49.2074H385.563C382.072 49.2074 379.116 52.1962 379.116 55.7629V87.4174H396.605V67.0079L416.677 87.4174H440.986L418.089 64.1017Z" fill="white"/>
    <path d="M607.239 30.3996V12.6321H555.048V86.5919L522.83 16.5621C521.823 14.3164 519.615 12.7312 516.935 12.7312C514.272 12.7312 511.966 14.4155 511.04 16.7603L510.943 16.8593L488.322 66.2154C487.299 68.4446 485.107 69.8646 482.704 69.8646H471.954C461.236 69.8646 452.337 61.146 452.256 50.2312C452.175 39.2338 460.911 30.3005 471.71 30.3005C475.348 30.3005 478.742 31.3078 481.648 33.0747C484.165 34.5938 487.397 34.148 489.475 32.0344L497.773 23.5964C494.298 20.0628 490.125 17.2226 485.481 15.3237C481.226 13.5733 476.582 12.6156 471.71 12.6156C464.565 12.6156 457.907 14.6797 452.256 18.2629C441.847 24.8514 434.913 36.5753 434.864 49.9505C434.864 50 434.864 50.0331 434.864 50.0826C434.864 50.1321 434.864 50.1652 434.864 50.2147C434.913 63.5899 441.847 75.3138 452.256 81.9023C457.907 85.4855 464.565 87.5496 471.71 87.5496L484.587 87.5166C492.041 87.5166 498.813 83.1242 501.963 76.2715H532.054L537.201 87.5166H555.048H555.226H572.521V58.9498H590.01V47.6387C590.01 44.072 587.168 41.1823 583.66 41.1823H572.521V30.4161H607.239V30.3996ZM510.001 58.7352L517.049 43.4115L524.064 58.7352H510.001Z" fill="white"/>
  </g>
</svg>