<svg width="101" height="109" viewBox="0 0 101 109" fill="none" xmlns="http://www.w3.org/2000/svg">
<path d="M73.9526 91.1389L70.8651 88.0606C69.5963 86.7956 67.5239 86.7956 66.2974 88.0606C57.4156 96.9158 38.3409 106.994 16.8978 92.0665C15.629 91.0545 13.7681 91.181 12.6261 92.3196L1.41817 103.494C0.149347 104.759 0.149347 106.825 1.41817 108.048C2.05258 108.681 2.89846 108.976 3.70205 108.976C4.50564 108.976 5.35152 108.681 5.98594 108.048L15.2906 98.8134C31.9122 109.398 53.5245 107.753 68.4544 94.8496L69.3425 95.7351C69.9347 96.3255 70.7805 96.6628 71.6264 96.6628C72.4723 96.6628 73.3182 96.3255 73.9103 95.7351C74.5024 95.1448 74.8408 94.3014 74.8408 93.4581C74.9254 92.5726 74.587 91.7714 73.9526 91.1389Z" fill="white"/>
<path d="M90.9549 9.54397C78.605 -2.76906 58.5576 -2.76906 46.0808 9.67048L22.9036 32.7785C22.4384 33.2423 22.1 34.0435 22.1 34.9291C22.1 36.1519 22.7767 37.2483 23.9187 37.8386C24.3416 38.0495 24.8069 38.1338 25.3144 38.176C26.2026 38.176 27.0907 37.7965 27.7251 37.164L28.4864 36.4049L32.2929 40.2C33.4771 41.3807 35.3381 41.5494 36.6492 40.5796C38.2141 39.3567 38.341 37.0796 36.9876 35.7302L33.0965 31.8508L37.7066 27.1702L41.5976 31.0496C42.1897 31.64 43.0356 31.9773 43.8815 31.9773C44.389 31.9773 44.8543 31.893 45.3195 31.64C46.4614 31.0496 47.1381 29.9532 47.1381 28.7304C47.1381 27.887 46.7998 27.0437 46.2077 26.4533L42.3166 22.5739L47.0113 17.8932L50.8177 21.6883C52.002 22.869 53.8629 23.0377 55.174 22.0678C56.7389 20.845 56.8658 18.5679 55.5124 17.2185L51.6636 13.3813C56.316 9.12229 62.3217 6.76089 68.6659 6.76089C75.3906 6.76089 81.6924 9.3753 86.4294 14.0981C91.1663 18.8209 93.7886 25.1039 93.7886 31.8086C93.7886 38.176 91.4624 44.1638 87.1484 48.7601L77.0401 38.8085C76.448 38.2182 75.6021 37.8808 74.7562 37.8808C74.291 37.8808 73.7834 37.9651 73.3605 38.176C71.2458 39.2302 70.9497 41.8868 72.4723 43.4048L82.5383 53.4408L77.8437 58.1214L67.7777 48.0854C66.5089 46.8204 64.4787 46.8204 63.2099 48.0854C62.6178 48.6758 62.2794 49.5191 62.2794 50.3625C62.2794 51.2059 62.6178 52.0492 63.2099 52.6396L73.2759 62.6755L68.5813 67.314L58.5153 57.278C57.2464 56.013 55.2163 56.013 53.9475 57.278C53.3554 57.8684 53.017 58.7118 53.017 59.5551C53.017 60.3985 53.3554 61.2418 53.9475 61.8322L64.0135 71.8681L55.4701 80.3861C50.7331 85.1089 44.4313 87.7233 37.7066 87.7233C30.9818 87.7233 24.68 85.1089 19.943 80.3861C11.5265 71.9946 10.1731 58.7539 16.7287 48.8445C17.8706 47.0734 20.366 46.8204 21.8463 48.3385L50.8177 77.2235C52.002 78.4042 53.9475 78.5307 55.2163 77.5186C56.4006 76.5488 56.7812 74.8621 55.9353 73.3862C55.8084 73.1332 55.597 72.9223 55.3855 72.7115L26.7101 44.0373C22.6921 40.0314 16.052 40.2844 12.3724 44.6698C10.9344 46.3566 9.66556 48.0433 8.98885 49.3927C6.4512 54.4106 5.64762 60.525 6.23973 66.049C7.00103 73.1753 10.2154 79.8379 15.2907 84.898C21.4656 91.0545 29.5438 94.1328 37.6643 94.1328C45.7847 94.1328 53.8629 91.0545 60.0379 84.898L90.9126 54.1155C103.305 41.8446 103.305 21.857 90.9549 9.54397Z" fill="white"/>
</svg>
