<svg xmlns="http://www.w3.org/2000/svg" width="102" height="101" viewBox="0 0 102 101" fill="none">
<path d="M77.7876 1.96328C77.7876 1.527 78.0072 0.87257 78.4463 0.654428C78.8854 0.218143 79.3246 0 79.7637 0H97.3289C98.4267 0 99.305 0.87257 99.305 1.96328V7.41685C99.305 8.50756 98.4267 9.38013 97.3289 9.38013H79.7637C79.3246 9.38013 79.105 9.16199 78.6659 8.94384C78.2267 8.50756 77.7876 8.07127 77.7876 7.41685V1.96328ZM3.13543 55.6264C3.13543 54.5356 4.01369 53.6631 5.11152 53.6631H22.6767C23.1159 53.6631 23.7746 53.8812 23.9941 54.3175C23.9941 54.5356 24.2137 54.7538 24.2137 54.9719C24.2137 55.1901 24.4333 55.4082 24.4333 55.8445V61.2981C24.4333 62.3888 23.555 63.2613 22.4572 63.2613H5.11152C4.01369 63.2613 3.13543 62.3888 3.13543 61.2981V55.6264ZM0.720215 68.2786C0.720215 67.1879 1.59848 66.3153 2.6963 66.3153H25.092H25.3115C26.1898 66.5335 26.8485 67.1879 26.8485 68.2786V73.7322C26.8485 74.8229 25.9702 75.6955 24.8724 75.6955H2.6963C1.59848 75.6955 0.720215 74.8229 0.720215 73.7322V68.2786ZM24.6528 99.0367C24.6528 99.473 24.4333 100.127 23.9941 100.346C23.555 100.782 23.1159 100.782 22.6767 100.782H5.11152C4.01369 100.782 3.13543 99.9093 3.13543 98.8186V93.365C3.13543 92.4924 4.01369 91.6199 5.11152 91.6199H22.6767C23.1159 91.6199 23.3354 91.838 23.7746 92.0562C24.2137 92.4924 24.6528 92.9287 24.6528 93.5832V99.0367ZM25.092 88.3477H2.6963C1.59848 88.3477 0.720215 87.4752 0.720215 86.3844V80.9309C0.720215 79.8402 1.59848 78.9676 2.6963 78.9676H25.092C26.1898 78.9676 27.068 79.8402 27.068 80.9309V86.3844C27.068 87.4752 26.1898 88.3477 25.092 88.3477ZM51.0007 99.2549C51.0007 100.127 50.342 100.782 49.4637 100.782H27.2876C27.5072 100.127 27.5072 99.6912 27.5072 99.0367V93.5832C27.5072 92.7106 27.2876 91.838 26.8485 91.1836C28.605 90.5292 29.9224 88.5659 29.9224 86.6026V81.149C29.9224 79.8402 29.2637 78.5313 28.3854 77.6587C29.2637 76.7862 29.9224 75.4773 29.9224 74.1685V68.7149C29.9224 66.7516 28.605 65.0065 26.8485 64.1339C27.2876 63.4795 27.5072 62.6069 27.5072 61.7343V56.2808C27.5072 54.0994 25.9702 51.9179 23.9941 51.4816C23.3354 51.2635 22.018 49.5184 21.1398 47.9914C21.1398 47.9914 19.3833 44.5011 19.3833 41.6652C19.3833 34.6847 23.7746 27.7041 25.9702 26.8315C26.1898 26.6134 26.6289 26.6134 26.8485 26.6134C27.9463 26.6134 28.3854 28.3585 29.0441 31.1944C29.9224 34.9028 31.2398 40.1382 35.4115 44.2829C39.1441 47.7732 49.4637 59.5529 49.4637 59.5529C50.1224 60.4255 50.7811 61.9525 50.7811 63.0432V99.2549H51.0007ZM76.4702 74.6048C76.2507 74.8229 75.8115 74.8229 75.592 74.8229C74.4941 74.8229 74.055 73.0778 73.3963 70.2419C72.518 66.5335 71.2007 61.2981 67.0289 57.1534C63.2963 53.6631 52.9767 41.8834 52.9767 41.8834C52.318 41.0108 51.6593 39.4838 51.6593 38.3931V1.527C51.6593 0.654428 52.318 0 53.1963 0H75.3724C75.1528 0.654428 75.1528 1.09071 75.1528 1.74514V7.1987C75.1528 8.07127 75.3724 8.94385 75.8115 9.59827C74.055 10.2527 72.7376 12.216 72.7376 14.1793V19.6328C72.7376 20.9417 73.3963 22.2505 74.2746 23.1231C73.3963 23.9957 72.7376 25.3045 72.7376 26.6134V32.067C72.7376 34.0302 74.055 35.7754 75.8115 36.6479C75.3724 37.3024 75.1528 38.1749 75.1528 39.0475V44.5011C75.1528 46.6825 76.6898 48.8639 78.6659 49.3002C79.3246 49.5184 80.642 51.2635 81.5202 52.7905C81.5202 52.7905 83.2767 56.2808 83.2767 59.1166C83.0572 66.5335 78.6659 73.7322 76.4702 74.6048ZM99.305 45.1555C99.305 46.2462 98.4267 47.1188 97.3289 47.1188H79.7637C79.3246 47.1188 78.6659 46.9006 78.4463 46.4644C78.4463 46.2462 78.2267 46.0281 78.2267 45.8099C78.2267 45.5918 78.0072 45.3737 78.0072 44.9374V39.4838C78.0072 38.3931 78.8854 37.5205 79.9833 37.5205H97.5485C98.6463 37.5205 99.5246 38.3931 99.5246 39.4838V45.1555H99.305ZM101.72 32.5032C101.72 33.594 100.842 34.4665 99.7441 34.4665H77.3485H77.1289C76.2507 34.2484 75.592 33.594 75.592 32.5032V27.0497C75.592 25.959 76.4702 25.0864 77.568 25.0864H99.9637C101.062 25.0864 101.94 25.959 101.94 27.0497V32.5032H101.72ZM101.72 20.0691C101.72 21.1598 100.842 22.0324 99.7441 22.0324H77.3485C76.2507 22.0324 75.3724 21.1598 75.3724 20.0691V14.3974C75.3724 13.3067 76.2507 12.4341 77.3485 12.4341H99.7441C100.842 12.4341 101.72 13.3067 101.72 14.3974V20.0691V20.0691Z" fill="white"/>
</svg>