<svg width="312" height="248" viewBox="0 0 312 248" fill="none" xmlns="http://www.w3.org/2000/svg">
<path d="M41.8765 135.539C41.8765 133.398 43.6125 131.662 45.754 131.662H90.2364V152.988H45.754C43.6125 152.988 41.8765 151.252 41.8765 149.111V135.539Z" fill="#FF4E00"/>
<path d="M152.303 87.6328C175.438 85.4555 198.721 92.3387 209.943 111.775C213.024 117.111 211.032 123.343 206.077 126.203L154.246 156.128L177.35 196.145C177.57 196.526 177.409 197.127 177.629 197.508L179.044 221.083C179.221 224.029 175.791 226.01 173.327 224.383L153.619 211.371C153.399 210.989 153.179 210.608 152.958 210.227L129.855 170.21L78.0233 200.135C72.6877 203.216 66.6762 201.605 63.5957 196.269C52.5939 177.214 57.6736 153.447 71.1263 134.5L49.8965 86.2874L33.8897 95.529C28.5541 98.6095 22.5426 96.9987 19.4621 91.6631L8.90039 73.3697C6.03992 68.4152 7.43066 62.0226 12.7663 58.9421L116.429 -0.907706C121.384 -3.76817 127.996 -1.99632 130.857 2.95815L141.418 21.2516C144.499 26.5872 142.507 32.8187 137.553 35.6792L121.165 45.1407L152.303 87.6328Z" fill="white" fill-opacity="0.2"/>
</svg>
